<?xml version="1.0" encoding="UTF-8"?>
<svg width="58px" height="153px" viewBox="0 0 58 153" version="1.1" xmlns="http://www.w3.org/2000/svg" xmlns:xlink="http://www.w3.org/1999/xlink">
    <title>Call-to-action</title>
    <g id="Landing-Page" stroke="none" stroke-width="1" fill="none" fill-rule="evenodd">
        <g id="Desktop-HD" transform="translate(-691.000000, -760.000000)" stroke="#FFFFFF">
            <g id="Main-Page" transform="translate(0.000000, 303.000000)">
                <g id="Call-to-action" transform="translate(691.000000, 457.000000)">
                    <rect id="container" stroke-width="3" x="1.5" y="1.5" width="55" height="150" rx="20"></rect>
                    <path d="M29,122.531159 L45.0431177,144.722877 L12.9568823,144.722877 L29,122.531159 Z" id="triangle-4" stroke-width="2" transform="translate(29.000000, 133.273585) rotate(-180.000000) translate(-29.000000, -133.273585) "></path>
                    <path d="M29,86.9273855 L45.0431177,109.119104 L12.9568823,109.119104 L29,86.9273855 Z" id="triangle-3" stroke-width="2" transform="translate(29.000000, 97.669811) rotate(-180.000000) translate(-29.000000, -97.669811) "></path>
                    <path d="M29,51.3236119 L45.0431177,73.5153302 L12.9568823,73.5153302 L29,51.3236119 Z" id="trinagle-2" stroke-width="2" transform="translate(29.000000, 62.066038) rotate(-180.000000) translate(-29.000000, -62.066038) "></path>
                    <path d="M29,15.7198383 L45.0431177,37.9115566 L12.9568823,37.9115566 L29,15.7198383 Z" id="triangle-1" stroke-width="2" transform="translate(29.000000, 26.462264) rotate(-180.000000) translate(-29.000000, -26.462264) "></path>
                </g>
            </g>
        </g>
    </g>
</svg>