<?xml version="1.0" encoding="UTF-8"?>
<svg width="261px" height="50px" viewBox="0 0 261 50" version="1.1" xmlns="http://www.w3.org/2000/svg" xmlns:xlink="http://www.w3.org/1999/xlink">
    <title>logo</title>
    <g id="Landing-Page" stroke="none" stroke-width="1" fill="none" fill-rule="evenodd">
        <g id="Desktop-HD" transform="translate(-154.000000, -39.000000)">
            <g id="logo" transform="translate(154.890174, 39.000000)">
                <text id="logo__header" font-family="BanglaMN, Bangla MN" font-size="34" font-weight="normal" fill="#FFFFFF">
                    <tspan x="60.1098257" y="43">Nature Inc.</tspan>
                </text>
                <g id="logo__image" transform="translate(0.109826, 0.000000)">
                    <g id="logo__image-leaf-2" transform="translate(19.000000, 0.000000)">
                        <path d="M0.0857502267,49.6681573 C0.570354326,49.5893333 0.928042715,49.4407602 1.15881539,49.2224382 C3.29152668,47.2047904 5.21650493,44.8005146 6.97320943,43.1088334 C9.01504352,41.1425764 10.3673196,38.9742065 11.0300378,36.6037235 C9.6643116,30.6762954 11.6014604,24.3648716 16.8414841,17.6694522 C22.0815078,10.9740328 30.0298673,5.23815146 40.6865625,0.461808127 C40.021369,10.9828074 36.9055061,19.7996142 31.338974,26.9122284 C25.7724419,34.0248425 19.0027965,37.2553409 11.0300378,36.6037235 C13.6420261,32.5361282 17.6160008,27.0102198 22.9519618,20.0259983 C28.2879229,13.0417768 34.1994564,6.52038006 40.6865625,0.461808127" id="Path" fill="#00A930"></path>
                        <g id="Leave-Lines" transform="translate(11.016738, 6.811014)" stroke="#009B1F" stroke-linecap="square">
                            <polyline id="Line" points="1.83784742 17.966792 5.01716155 17.966792 7.55559495 17.966792"></polyline>
                            <line x1="0.204205269" y1="22.9897661" x2="4.28831065" y2="22.6033835" id="Line-Copy"></line>
                            <line x1="5.10513172" y1="29.1718881" x2="4.69672118" y2="24.148914" id="Line-Copy-2"></line>
                            <line x1="5.10513172" y1="12.1710526" x2="12.4565214" y2="11.78467" id="Line-2"></line>
                            <line x1="11.2312898" y1="5.21616541" x2="17.7658584" y2="5.21616541" id="Line-3"></line>
                            <line x1="9.1892371" y1="19.5123225" x2="10.8228792" y2="27.2399749" id="Line-4"></line>
                            <line x1="13.681753" y1="13.3302005" x2="16.5406268" y2="22.6033835" id="Line-5"></line>
                            <line x1="19.3995005" y1="6.37531328" x2="22.6667848" y2="15.6484962" id="Line-6"></line>
                            <line x1="23.4836059" y1="1.7387218" x2="26.3424797" y2="8.3072264" id="Line-7"></line>
                            <line x1="18.1742689" y1="0.193191312" x2="21.4415532" y2="0.193191312" id="Line-8"></line>
                        </g>
                    </g>
                    <g id="logo__image-leaf-1" transform="translate(20.500000, 25.000000) scale(-1, 1) translate(-20.500000, -25.000000) ">
                        <path d="M0.682163613,49.6681573 C1.15779356,49.5893333 1.50885809,49.4407602 1.7353572,49.2224382 C3.82857384,47.2047904 5.71790434,44.8005146 7.44207727,43.1088334 C9.44609962,41.1425764 10.7733336,38.9742065 11.4237792,36.6037235 C10.0833442,30.6762954 11.9846199,24.3648716 17.1276061,17.6694522 C22.2705924,10.9740328 30.07176,5.23815146 40.531109,0.461808127 C39.8782339,10.9828074 36.8200722,19.7996142 31.356624,26.9122284 C25.8931758,34.0248425 19.2488942,37.2553409 11.4237792,36.6037235 C13.9873974,32.5361282 17.8877799,27.0102198 23.1249268,20.0259983 C28.3620738,13.0417768 34.1641345,6.52038006 40.531109,0.461808127" id="Path" fill="#00A930"></path>
                        <g id="Leave-Lines" transform="translate(11.410726, 6.811014)" stroke="#009B1F" stroke-linecap="square">
                            <polyline id="Line" points="1.80381321 17.966792 4.92425115 17.966792 7.41567652 17.966792"></polyline>
                            <line x1="0.20042369" y1="22.9897661" x2="4.20889749" y2="22.6033835" id="Line-Copy"></line>
                            <line x1="5.01059224" y1="29.1718881" x2="4.60974487" y2="24.148914" id="Line-Copy-2"></line>
                            <line x1="5.01059224" y1="12.1710526" x2="12.2258451" y2="11.78467" id="Line-2"></line>
                            <line x1="11.0233029" y1="5.21616541" x2="17.436861" y2="5.21616541" id="Line-3"></line>
                            <line x1="9.01906604" y1="19.5123225" x2="10.6224556" y2="27.2399749" id="Line-4"></line>
                            <line x1="13.4283872" y1="13.3302005" x2="16.2343189" y2="22.6033835" id="Line-5"></line>
                            <line x1="19.0402505" y1="6.37531328" x2="22.2470296" y2="15.6484962" id="Line-6"></line>
                            <line x1="23.0487243" y1="1.7387218" x2="25.854656" y2="8.3072264" id="Line-7"></line>
                            <line x1="17.8377084" y1="0.193191312" x2="21.0444874" y2="0.193191312" id="Line-8"></line>
                        </g>
                    </g>
                </g>
            </g>
        </g>
    </g>
</svg>