<?xml version="1.0" encoding="UTF-8"?>
<svg width="510px" height="348px" viewBox="0 0 510 348" version="1.1" xmlns="http://www.w3.org/2000/svg" xmlns:xlink="http://www.w3.org/1999/xlink">
    <title>undraw_Eco_conscious_re_r2bs</title>
    <g id="Landing-Page" stroke="none" stroke-width="1" fill="none" fill-rule="evenodd">
        <g id="Desktop-HD" transform="translate(-763.000000, -303.000000)" fill-rule="nonzero">
            <g id="Main-Page" transform="translate(0.000000, 303.000000)">
                <g id="undraw_Eco_conscious_re_r2bs" transform="translate(763.000000, 0.000000)">
                    <path d="M203.545504,228.79558 C202.601275,228.79558 201.66235,228.66019 200.759514,228.39495 L6.77029251,171.599913 C1.72366653,170.11646 -1.11880874,164.994257 0.416296219,160.149871 L49.3040795,6.49468987 C50.8504017,1.65342685 56.1903274,-1.07337025 61.2405097,0.399432208 L255.229603,57.1944693 C260.276344,58.6779589 263.118859,63.8003007 261.583669,68.6447828 L212.695886,222.299964 C211.462976,226.157309 207.7514,228.792059 203.545504,228.79558 Z" id="Path" fill="#44F8A2"></path>
                    <path d="M232.171875,204.762431 L29.828125,204.762431 C24.4027214,204.756579 20.006079,200.52396 20,195.30096 L20,34.4559465 C20.006079,29.2329461 24.4027214,25.0003273 29.828125,24.9944751 L232.171875,24.9944751 C237.597267,25.0003549 241.993892,29.2329576 242,34.4559465 L242,195.30096 C241.993892,200.523949 237.597267,204.756551 232.171875,204.762431 Z M29.828125,26.1075894 C25.0410259,26.1128035 21.1616662,29.8474377 21.15625,34.4559465 L21.15625,195.30096 C21.1616662,199.909468 25.0410259,203.644103 29.828125,203.649317 L232.171875,203.649317 C236.958974,203.644103 240.838334,199.909468 240.84375,195.30096 L240.84375,34.4559465 C240.838334,29.8474377 236.958974,26.1128035 232.171875,26.1075894 L29.828125,26.1075894 Z" id="Shape" fill="#3F3D56"></path>
                    <path d="M130.5,185.535912 C130.223858,185.535912 130,185.286847 130,184.979611 L130,76.5010517 C130,76.1938155 130.223858,75.9447514 130.5,75.9447514 C130.776142,75.9447514 131,76.1938155 131,76.5010517 L131,184.979611 C131,185.286847 130.776142,185.535912 130.5,185.535912 Z" id="Path" fill="#FFFFFF"></path>
                    <path d="M130.583771,159.58011 C130.311781,159.58011 130.07575,159.400323 130.014861,159.146273 C129.953971,158.892222 130.084389,158.631563 130.32921,158.518 L192.161148,129.835542 C192.348778,129.747871 192.570992,129.762983 192.743824,129.875169 C192.916655,129.987355 193.01375,130.179507 192.99842,130.379019 C192.98309,130.578531 192.857673,130.75498 192.669559,130.841693 L130.837481,159.524151 C130.758456,159.561063 130.671683,159.58011 130.583771,159.58011 L130.583771,159.58011 Z" id="Path" fill="#FFFFFF"></path>
                    <path d="M130.575895,130.740331 C130.311943,130.740331 130.081711,130.568136 130.017397,130.322187 C129.953084,130.076238 130.071183,129.819789 130.303882,129.700092 L171.154485,108.694543 C171.43455,108.551628 171.782175,108.653327 171.931803,108.921951 C172.081432,109.190576 171.976664,109.524872 171.697534,109.669466 L130.84693,130.675015 C130.763551,130.717872 130.670456,130.740331 130.575895,130.740331 L130.575895,130.740331 Z" id="Path" fill="#FFFFFF"></path>
                    <path d="M131.56864,99.0165746 C131.309071,99.0167286 131.082387,98.8503626 131.01788,98.6123655 C130.953373,98.3743683 131.067442,98.1252462 131.295028,98.007089 L155.15855,85.6243253 C155.433734,85.4815367 155.779099,85.5769497 155.929944,85.8374362 C156.080789,86.0979227 155.979993,86.4248418 155.704809,86.5676304 L131.841286,98.9503941 C131.757735,98.9938186 131.663957,99.0165746 131.56864,99.0165746 L131.56864,99.0165746 Z" id="Path" fill="#FFFFFF"></path>
                    <path d="M131.416215,159.58011 C131.328302,159.58011 131.241527,159.561063 131.1625,159.52415 L69.3290891,130.841037 C69.1415452,130.754022 69.0166866,130.577728 69.0015462,130.378565 C68.9864059,130.179401 69.0832839,129.987626 69.2556874,129.875478 C69.4280909,129.76333 69.6498276,129.747848 69.8373714,129.834864 L131.670782,158.517976 C131.915609,158.631542 132.04603,158.892207 131.985139,159.146263 C131.924248,159.400319 131.688212,159.58011 131.416215,159.58011 Z" id="Path" fill="#FFFFFF"></path>
                    <path d="M130.424105,130.740331 C130.329544,130.740331 130.236449,130.717872 130.15307,130.675015 L89.3024662,109.669466 C89.0233363,109.524872 88.9185685,109.190576 89.0681967,108.921951 C89.217825,108.653327 89.5654499,108.551628 89.8455146,108.694543 L130.696118,129.700092 C130.928817,129.819789 131.046916,130.076238 130.982603,130.322187 C130.918289,130.568136 130.688057,130.740331 130.424105,130.740331 L130.424105,130.740331 Z" id="Path" fill="#FFFFFF"></path>
                    <path d="M130.43136,99.0165746 C130.336044,99.0165746 130.242265,98.993816 130.158714,98.9503941 L106.295191,86.5676304 C106.020007,86.4248418 105.919211,86.0979227 106.070056,85.8374362 C106.220901,85.5769497 106.566266,85.4815367 106.84145,85.6243253 L130.704972,98.007089 C130.932558,98.1252462 131.046627,98.3743683 130.98212,98.6123655 C130.917613,98.8503626 130.690929,99.0167286 130.43136,99.0165746 L130.43136,99.0165746 Z" id="Path" fill="#FFFFFF"></path>
                    <path d="M140.265957,203.801105 L120.734043,203.801105 C118.672764,203.798853 117.002355,202.201542 117,200.230466 L117,188.145225 C117.002358,186.17415 118.672766,184.576841 120.734043,184.574586 L140.265957,184.574586 C142.327234,184.576841 143.997642,186.17415 144,188.145225 L144,200.230466 C143.997645,202.201542 142.327236,203.798853 140.265957,203.801105 Z" id="Path" fill="#3F3D56"></path>
                    <ellipse id="Oval" fill="#FF6584" cx="20.5" cy="58.160221" rx="8.5" ry="8.17127072"></ellipse>
                    <path d="M250,27.8783177 C250,28.186268 249.990696,28.4897494 249.962877,28.788762 C249.578175,33.8599936 246.034998,38.2013703 241.002606,39.7675838 C235.970214,41.3337973 230.452393,39.8124432 227.048697,35.9202614 C223.645001,32.0280796 223.034348,26.5414234 225.504428,22.0451649 C225.783923,21.5302099 226.103649,21.0363755 226.460856,20.5679115 C229.645091,16.3225637 235.244919,14.4355065 240.489732,15.840392 C245.734546,17.2452774 249.512174,21.644197 249.953574,26.8607141 C249.986059,27.1954611 250,27.534644 250,27.8783177 Z" id="Path" fill="#3F3D56"></path>
                    <ellipse id="Oval" fill="#E6E6E6" cx="201.5" cy="203.320442" rx="8.5" ry="8.17127072"></ellipse>
                    <ellipse id="Oval" fill="#E6E6E6" cx="136.5" cy="24.5138122" rx="8.5" ry="8.17127072"></ellipse>
                    <path d="M470.5,347.038674 C470.223858,347.038674 470,346.780434 470,346.461878 L470,336.079558 C470,335.761003 470.223858,335.502762 470.5,335.502762 C470.776142,335.502762 471,335.761003 471,336.079558 L471,346.461878 C470.999986,346.780427 470.776137,347.038674 470.5,347.038674 Z" id="Path" fill="#E6E6E6"></path>
                    <ellipse id="Oval" fill="#E6E6E6" cx="470" cy="330.696133" rx="3" ry="2.8839779"></ellipse>
                    <path d="M469,342.232044 C469,342.232044 472.75,335.689687 478,337.870473" id="Path" fill="#E6E6E6"></path>
                    <path d="M313.5,347.038674 C313.223858,347.038674 313,346.780434 313,346.461878 L313,336.079558 C313,335.761003 313.223858,335.502762 313.5,335.502762 C313.776142,335.502762 314,335.761003 314,336.079558 L314,346.461878 C313.999986,346.780427 313.776137,347.038674 313.5,347.038674 Z" id="Path" fill="#E6E6E6"></path>
                    <ellipse id="Oval" fill="#E6E6E6" cx="314" cy="330.696133" rx="3" ry="2.8839779"></ellipse>
                    <path d="M313,342.232044 C313,342.232044 316.75,335.689687 322,337.870473" id="Path" fill="#E6E6E6"></path>
                    <path d="M342.5,347.038674 C342.223858,347.038674 342,346.780434 342,346.461878 L342,336.079558 C342,335.761003 342.223858,335.502762 342.5,335.502762 C342.776142,335.502762 343,335.761003 343,336.079558 L343,346.461878 C342.999986,346.780427 342.776137,347.038674 342.5,347.038674 Z" id="Path" fill="#E6E6E6"></path>
                    <ellipse id="Oval" fill="#E6E6E6" cx="342" cy="330.696133" rx="3" ry="2.8839779"></ellipse>
                    <path d="M341,342.232044 C341,342.232044 344.75,335.689687 350,337.870473" id="Path" fill="#E6E6E6"></path>
                    <path d="M360.442682,304.80768 C360.483608,304.742632 360.5279,304.679594 360.575391,304.618803 C360.692418,304.353875 360.839879,304.102332 361.015031,303.868849 L375.564552,284.314504 L387.552222,268.209945 L408,268.209945 L406.554309,270.148714 L403.980863,273.609611 L396.006692,284.320059 L378.918457,307.279749 L394.757523,337.844524 C395.405261,339.088892 394.300684,340.87767 392.305498,341.833166 L384.666466,345.488496 C383.908106,345.860374 383.071651,346.061734 382.220357,346.077348 C381.144838,346.077348 380.248625,345.694038 379.87252,344.966306 L360.182319,306.968657 C359.866659,306.254582 359.965573,305.433608 360.442682,304.80768 L360.442682,304.80768 Z" id="Path" fill="#44F8A2"></path>
                    <path d="M404.000376,342.867512 L404.000376,273.342444 C403.998658,273.27776 404.002834,273.213056 404.012857,273.149091 C404.08332,271.500702 405.152463,270.050459 406.733956,269.458046 C407.227401,269.267402 407.753645,269.170077 408.284519,269.171271 L416.715856,269.171271 C419.080833,269.173844 420.997368,271.039837 421,273.342444 L421,342.867512 C420.997371,345.17012 419.080834,347.036115 416.715856,347.038674 L408.284519,347.038674 C405.919542,347.036115 404.003004,345.17012 404.000376,342.867512 Z" id="Path" fill="#44F8A2"></path>
                    <path d="M393.355748,218.375504 L356.181394,276.803271 C354.925732,278.765641 352.274622,279.372369 350.25026,278.16066 L343.037302,273.826296 C341.019044,272.605461 340.395399,270.02848 341.642061,268.06098 L378.817098,209.631716 C379.002909,209.338085 379.227289,209.069243 379.484569,208.831981 C380.898375,207.491502 383.07065,207.26184 384.747836,208.275528 L391.960501,212.610071 C392.933919,213.193751 393.627724,214.130672 393.8882,215.213254 C393.987756,215.637537 394.021101,216.073963 393.987117,216.507887 C393.933319,217.170549 393.716807,217.811001 393.355748,218.375504 Z" id="Path" fill="#44F8A2"></path>
                    <path d="M395.394713,217.270427 L380.901479,245.995064 C379.663773,247.974495 377.003701,248.613216 374.952234,247.423562 L361.092642,239.577571 C360.110445,239.000999 359.403391,238.072737 359.125265,236.994685 C358.84728,235.89943 359.036233,234.742091 359.649634,233.782922 L378.588174,208.285209 C378.650548,208.185258 378.727411,208.094466 378.81642,208.015601 C379.506316,207.381494 381.057938,207.156652 382.303183,206.976271 L382.496984,206.94742 C382.831253,206.897737 383.119661,206.854799 383.323403,206.804512 L383.401193,206.788199 C383.483893,206.770477 383.569485,206.752492 383.64739,206.741867 C384.665418,206.577866 385.710523,206.771818 386.593441,207.288599 L393.900403,211.5534 C395.303084,212.381952 396.108937,213.89937 395.988087,215.484504 C395.938473,216.116687 395.735164,216.728603 395.394713,217.270427 Z" id="Path" fill="#2F2E41"></path>
                    <ellipse id="Oval" fill="#44F8A2" cx="400" cy="154.773481" rx="31" ry="29.801105"></ellipse>
                    <path d="M401.967869,170.154696 L402,169.025282 C399.852145,168.966823 397.958521,168.835021 396.535651,167.818107 C395.719398,167.201572 395.217645,166.268216 395.160965,165.260932 C395.110294,164.6444 395.356367,164.040007 395.826461,163.62637 C396.771016,162.846041 398.290833,163.098612 399.398618,163.595486 L400.353881,164.02398 L398.522002,150.928177 L397.378167,151.081489 L398.93635,162.22122 C397.431161,161.788316 396.036461,161.974714 395.081203,162.76387 C394.337684,163.398847 393.940376,164.337345 394.007276,165.300637 C394.075497,166.654517 394.751642,167.909761 395.854655,168.730245 C397.682863,170.037231 400.058757,170.102303 401.967869,170.154696 Z" id="Path" fill="#2F2E41"></path>
                    <rect id="Rectangle" fill="#2F2E41" x="386" y="152.850829" width="6" height="1"></rect>
                    <rect id="Rectangle" fill="#2F2E41" x="405" y="152.850829" width="6" height="1"></rect>
                    <path d="M359.63092,298.958183 C357.590983,298.844642 356,295.611967 356,291.558149 L368.120805,224.428136 C368.120147,221.890381 368.450911,219.362638 369.105298,216.904509 L369.105442,216.903953 C369.343512,216.02007 369.625834,215.141345 369.944155,214.293583 C371.881853,209.074821 375.283422,204.476338 379.770608,201.009483 C380.277332,200.610728 380.80745,200.224739 381.345106,199.862654 C383.958683,198.085063 386.842285,196.708576 389.893264,195.782196 C389.808976,195.415684 389.766006,195.04147 389.765101,194.666063 C389.768539,191.748696 392.221448,189.384529 395.248322,189.381215 L403.328859,189.381215 C406.355735,189.384526 408.808645,191.748695 408.812081,194.666063 C408.811128,195.04073 408.768279,195.414206 408.684275,195.78002 C421.644277,199.735081 430.453029,211.32578 430.456376,224.428102 L442,291.558116 C442,295.715695 440.35209,298.972376 438.248322,298.972376 L359.751678,298.972376 C359.710934,298.972376 359.67027,298.968402 359.63092,298.958183 L359.63092,298.958183 Z" id="Path" fill="#2F2E41"></path>
                    <path d="M407.744395,289.170788 C407.393337,288.563886 407.202355,287.879984 407.188911,287.181619 L406.000694,218.760402 C405.980352,217.65372 406.407938,216.584549 407.189097,215.788826 L407.190091,215.787875 C407.970187,214.991672 409.039568,214.533467 410.162793,214.514139 L418.499224,214.375691 C420.675127,214.337931 422.526117,215.930726 422.779542,218.059627 C422.797363,218.196479 422.806489,218.334294 422.806867,218.472267 L423.999557,286.898263 C424.032972,289.200718 422.170569,291.096691 419.833087,291.139836 L411.499412,291.281768 C409.950946,291.303715 408.51253,290.495259 407.744378,289.170811 L407.744395,289.170788 Z" id="Path" fill="#44F8A2"></path>
                    <path d="M403.565018,242.08893 C403.237563,241.546818 403.044417,240.942066 403,240.31983 L403.369277,208.895612 C403.182475,206.61908 404.988296,204.629799 407.405954,204.448835 L416.024334,203.813217 C417.073371,203.737723 418.116614,204.016947 418.966576,204.600709 C419.054914,204.66373 419.143339,204.740549 419.229474,204.79548 C419.444948,204.964278 419.669453,205.122588 419.902108,205.26979 L420.088881,205.39468 C421.327645,206.220461 422.732137,207.156192 422.800067,208.068089 L427.985021,238.727034 C428.062602,239.602391 427.837379,240.477895 427.342976,241.222832 C427.226597,241.405801 427.093886,241.57911 426.94628,241.740884 C426.816882,241.884302 426.675645,242.017866 426.523887,242.140327 C425.808797,242.745905 424.900697,243.111297 423.941596,243.179364 L407.721716,244.16454 C406.026454,244.287373 404.407872,243.479144 403.565024,242.088919 L403.565018,242.08893 Z" id="Path" fill="#2F2E41"></path>
                    <path d="M414.996269,142.508922 C413.213812,137.857086 408.220893,135.08232 403.11722,135.907256 C401.338049,136.262442 399.68317,137.046886 398.309571,138.186174 C395.430725,140.410662 393.227115,143.761566 389.467327,144.707523 C386.2471,145.517726 382.724484,144.506941 380.141934,142.588132 C373.870168,137.928261 374.91472,129.073842 379.575927,123.701739 C384.986801,117.465609 394.190464,115.661671 402.266676,116.174556 C410.698025,116.709995 418.819837,119.863689 425.622152,124.597453 C432.493672,129.379378 437.901463,135.888938 441.801555,143.077172 C443.777164,146.740517 445.391607,150.572249 446.623914,154.522601 C448.013877,158.666389 448.888944,162.952536 449.231014,167.292385 C449.47791,171.51796 448.869525,175.864426 446.50905,179.516923 C444.5601,182.532649 441.507306,184.989284 437.802368,185.659757 C434.361702,186.183598 430.885177,184.948509 428.634488,182.402726 C426.216664,179.712181 426.300976,175.710949 428.830174,173.115933 C430.199451,171.730877 432.092979,170.931061 434.084695,170.89645 C436.076411,170.86184 437.999013,171.595343 439.419897,172.931914 C440.737469,174.238001 441.526754,176.181486 440.929285,177.971807 C440.426665,179.477922 438.852814,180.865888 437.115024,180.707369 C435.474789,180.557777 433.985341,178.935345 434.378454,177.340617 C434.634739,176.300937 432.961874,175.857228 432.705075,176.898984 C432.293327,178.814944 433.219108,180.766503 434.99706,181.73052 C436.738754,182.692428 438.919751,182.526252 440.480577,181.312715 C444.137885,178.621453 443.165033,173.568835 439.829924,171.057644 C436.210414,168.398122 431.101668,168.679563 427.824743,171.719008 C424.884428,174.499135 424.294071,178.836625 426.39207,182.245188 C428.46766,185.372307 432.018893,187.320243 435.886633,187.453179 C439.95896,187.581446 443.814806,185.403439 446.379904,182.495386 C452.870494,175.136955 451.334377,164.7672 448.919376,156.170899 C446.572395,147.497554 442.365684,139.386666 436.566769,132.354048 C430.787261,125.426373 423.155762,120.126436 414.482699,117.017065 C406.043089,114.050325 396.16987,113.275014 387.655049,116.418519 C383.524546,117.943424 379.770392,120.413327 377.234981,123.931028 C374.792238,127.237346 373.673376,131.274517 374.082739,135.305211 C374.517606,139.042611 376.66131,142.402997 379.935825,144.480277 C382.961044,146.414138 386.941183,147.260966 390.45909,146.159946 C394.634012,144.853305 396.823455,141.066483 400.31451,138.812595 C403.393852,136.880265 407.409532,137.009158 410.346752,139.134605 C411.734775,140.073875 412.776581,141.409664 413.322878,142.95055 C413.669778,143.961711 415.34613,143.528728 414.996257,142.508917 L414.996269,142.508922 Z" id="Path" fill="#2F2E41"></path>
                    <path d="M432.852654,245.896311 C436.000662,245.916905 439.340141,246.003305 442.236376,247.350735 C444.544071,248.424338 446.679922,250.305706 447.148246,252.859083 C447.568756,255.151771 446.51551,257.838927 444.09223,258.583299 C441.354051,259.424406 438.583269,257.8697 437.091712,255.668279 C435.080262,252.699546 434.943503,249.044618 434.81769,245.603919 C434.777344,244.500563 433.011693,244.495359 433.052228,245.603919 C433.185138,249.238626 433.373948,253.068222 435.384121,256.254777 C437.134872,259.030075 440.257581,260.9563 443.685709,260.433613 C446.826432,259.954745 448.800472,257.271309 448.986345,254.293004 C449.179646,251.195733 447.298228,248.489312 444.763359,246.784797 C441.295991,244.453277 436.929802,244.203465 432.852678,244.176796 C432.377055,244.192845 432,244.573031 432,245.036553 C432,245.500076 432.377055,245.880262 432.852678,245.896311 L432.852654,245.896311 Z" id="Path" fill="#2F2E41"></path>
                    <path d="M433.35385,245.968312 C436.356315,244.197253 439.397877,242.233151 441.292967,239.346944 C443.015761,236.72314 443.683784,233.341699 442.115239,230.515339 C440.728029,228.015727 437.747162,226.338675 434.726363,227.029112 C431.51858,227.762296 429.4758,230.590761 429.083858,233.537537 C428.545729,237.583375 430.694387,241.284696 432.76001,244.674068 C433.013859,245.051082 433.540636,245.171615 433.951112,244.946606 C434.361589,244.721597 434.50808,244.232001 434.282346,243.839576 C432.715722,241.268973 431.024205,238.556305 430.790572,235.534807 C430.588663,232.923585 431.569368,230.166127 434.217566,228.948595 C436.52998,227.885434 439.052791,228.977067 440.337609,230.929667 C441.830802,233.198957 441.310016,236.009389 439.954723,238.221004 C438.243395,241.013574 435.306016,242.864265 432.464007,244.540662 C431.505898,245.105817 432.389677,246.537044 433.35385,245.968312 Z" id="Path" fill="#2F2E41"></path>
                    <path d="M509.420366,348 L288.579634,348 C288.259511,348 288,347.7848 288,347.519337 C288,347.253874 288.259511,347.038674 288.579634,347.038674 L509.420366,347.038674 C509.740489,347.038674 510,347.253874 510,347.519337 C510,347.7848 509.740489,348 509.420366,348 Z" id="Path" fill="#CCCCCC"></path>
                </g>
            </g>
        </g>
    </g>
</svg>